# xmcd
#
# Track frame offsets: 
#        150
#        37513
#        56813
#        81801
#        104324
#        120576
#        136069
#        160815
#        185703
#        213420
#        229935
#        250954
#        284295
#
# Disc length: 4087 seconds
#
# Revision: 0
# Processed by: cddbd v1.5PL3 Copyright (c) Steve Scherf et al.
# Submitted via: ExactAudioCopy v0.95a3
#
DISCID=af0ff50d
DTITLE=Bobos and The Frozen Dozen - Grooved
DYEAR=2003
DGENRE=Blues
TTITLE0=The blues - to Robert Johnson and John Campbell
TTITLE1='Bout me
TTITLE2=Babe
TTITLE3=Goin' to the river
TTITLE4=William's walk
TTITLE5=Hey girl
TTITLE6=Grooved
TTITLE7=Nitetrain
TTITLE8=When the demons cry
TTITLE9=I just wanna make love to you
TTITLE10=Don't play games
TTITLE11=Brother don't you cry
TTITLE12=In the harmonica mood
EXTD=
EXTT0=
EXTT1=
EXTT2=
EXTT3=
EXTT4=
EXTT5=
EXTT6=
EXTT7=
EXTT8=
EXTT9=
EXTT10=
EXTT11=
EXTT12=
PLAYORDER=
